<svg width="18" height="12" viewBox="0 0 18 12" fill="none" xmlns="http://www.w3.org/2000/svg">
<path fill-rule="evenodd" clip-rule="evenodd" d="M8.99999 4.74998C8.30964 4.74998 7.74999 5.30962 7.74999 5.99998C7.74999 6.69034 8.30964 7.24998 8.99999 7.24998C9.69035 7.24998 10.25 6.69034 10.25 5.99998C10.25 5.30962 9.69035 4.74998 8.99999 4.74998ZM6.08333 5.99998C6.08333 4.38915 7.38916 3.08331 8.99999 3.08331C10.6108 3.08331 11.9167 4.38915 11.9167 5.99998C11.9167 7.61081 10.6108 8.91665 8.99999 8.91665C7.38916 8.91665 6.08333 7.61081 6.08333 5.99998Z" fill="#B5B8C6"/>
<path fill-rule="evenodd" clip-rule="evenodd" d="M2.67593 5.99998C2.71346 6.03619 2.75263 6.07374 2.79337 6.11251C3.23098 6.52905 3.84517 7.08259 4.55369 7.63401C5.26476 8.18741 6.05448 8.7258 6.84349 9.12273C7.64216 9.52451 8.37884 9.74998 9 9.74998C9.62116 9.74998 10.3578 9.52451 11.1565 9.12273C11.9455 8.7258 12.7352 8.18741 13.4463 7.63401C14.1548 7.08259 14.769 6.52905 15.2066 6.11251C15.2474 6.07374 15.2865 6.03619 15.3241 5.99998C15.2865 5.96377 15.2474 5.92622 15.2066 5.88745C14.769 5.47091 14.1548 4.91737 13.4463 4.36595C12.7352 3.81255 11.9455 3.27415 11.1565 2.87723C10.3578 2.47545 9.62116 2.24998 9 2.24998C8.37884 2.24998 7.64216 2.47545 6.84349 2.87723C6.05448 3.27415 5.26476 3.81255 4.55369 4.36595C3.84517 4.91737 3.23098 5.47091 2.79337 5.88745C2.75263 5.92622 2.71346 5.96377 2.67593 5.99998ZM16.5 5.99998C17.1092 5.43134 17.1091 5.43121 17.1089 5.43107L17.1044 5.42621L17.0934 5.41453L17.0533 5.37237C17.0186 5.33619 16.9684 5.2842 16.904 5.21866C16.7751 5.08762 16.5888 4.9021 16.3557 4.68022C15.8905 4.23738 15.2337 3.64509 14.4699 3.05067C13.7087 2.45824 12.8248 1.8508 11.9055 1.38835C10.9959 0.930758 9.98967 0.583313 9 0.583313C8.01033 0.583313 7.00409 0.930758 6.09448 1.38835C5.17521 1.8508 4.29128 2.45824 3.53006 3.05067C2.76629 3.64509 2.10954 4.23738 1.64429 4.68022C1.41118 4.9021 1.22493 5.08762 1.09604 5.21866C1.03156 5.2842 0.981361 5.33619 0.94674 5.37237L0.90663 5.41453L0.895628 5.42621L0.892443 5.42961L0.891436 5.43068C0.891299 5.43083 0.890822 5.43134 1.5 5.99998L0.890822 5.43134C0.591945 5.75152 0.591945 6.24843 0.890822 6.56862L1.5 5.99998C0.890822 6.56862 0.890685 6.56847 0.890822 6.56862L0.892443 6.57035L0.895628 6.57375L0.90663 6.58543L0.94674 6.62759C0.981361 6.66377 1.03156 6.71576 1.09604 6.7813C1.22493 6.91234 1.41118 7.09786 1.64429 7.31974C2.10954 7.76258 2.76629 8.35487 3.53006 8.94928C4.29128 9.54172 5.17521 10.1492 6.09448 10.6116C7.00409 11.0692 8.01033 11.4166 9 11.4166C9.98967 11.4166 10.9959 11.0692 11.9055 10.6116C12.8248 10.1492 13.7087 9.54172 14.4699 8.94928C15.2337 8.35487 15.8905 7.76258 16.3557 7.31974C16.5888 7.09786 16.7751 6.91234 16.904 6.7813C16.9684 6.71576 17.0186 6.66377 17.0533 6.62759L17.0934 6.58543L17.1044 6.57375L17.1086 6.56928C17.1087 6.56913 17.1092 6.56862 16.5 5.99998ZM16.5 5.99998L17.1092 6.56862C17.4081 6.24843 17.4078 5.75125 17.1089 5.43107L16.5 5.99998Z" fill="#B5B8C6"/>
</svg>
